<svg width="94.000000" height="34.000000" viewBox="0 0 94 34" fill="none" xmlns="http://www.w3.org/2000/svg" xmlns:xlink="http://www.w3.org/1999/xlink">
	<desc>
			Created with Pixso.
	</desc>
	<defs>
		<clipPath id="clip23_31891">
			<rect id="Logo" width="94.208336" height="34.000000" transform="translate(-0.318359 0.000000)" fill="white" fill-opacity="0"/>
		</clipPath>
	</defs>
	<rect id="Logo" width="94.208336" height="34.000000" transform="translate(-0.318359 0.000000)" fill="#FFFFFF" fill-opacity="0"/>
	<g clip-path="url(#clip23_31891)">
		<path id="Vector" d="M10.04 4.25L-0.32 4.25L-0.32 29.04L10.04 4.25Z" fill="#4C4C4D" fill-opacity="1.000000" fill-rule="nonzero"/>
		<path id="Vector" d="M17.34 4.25L27.69 4.25L27.69 29.04L17.34 4.25Z" fill="#4C4C4D" fill-opacity="1.000000" fill-rule="nonzero"/>
		<path id="Vector" d="M13.69 13.38L20.29 29.04L15.96 29.04L13.99 24.05L9.16 24.05L13.69 13.38Z" fill="#4C4C4D" fill-opacity="1.000000" fill-rule="nonzero"/>
		<path id="Vector" d="M44.6 20.01L45.83 23.51C45.87 23.6 45.93 23.64 46.03 23.64L48.38 23.64C48.51 23.64 48.53 23.58 48.51 23.45L43.66 9.97C43.64 9.86 43.62 9.84 43.51 9.84L40.59 9.84C40.51 9.84 40.46 9.9 40.46 9.99C40.42 10.7 40.36 10.91 40.27 11.12L35.95 23.43C35.92 23.58 35.97 23.64 36.09 23.64L38.19 23.64C38.32 23.64 38.38 23.6 38.43 23.47L39.58 20.01L44.6 20.01ZM40.25 17.72C40.89 15.8 41.73 13.34 42.06 11.94L42.08 11.94C42.5 13.41 43.49 16.33 43.93 17.72L40.25 17.72Z" fill="#4C4C4D" fill-opacity="1.000000" fill-rule="nonzero"/>
		<path id="Vector" d="M54.76 23.85C56.02 23.85 57.36 23.62 58.73 23.03C58.83 22.99 58.85 22.95 58.85 22.85C58.81 22.47 58.77 21.92 58.77 21.5L58.77 8.81C58.77 8.72 58.77 8.68 58.67 8.68L56.38 8.68C56.29 8.68 56.25 8.72 56.25 8.83L56.25 13.13C55.89 13.09 55.64 13.07 55.34 13.07C51.65 13.07 49.38 15.51 49.38 18.56C49.38 22.09 51.71 23.85 54.76 23.85ZM56.25 21.5C55.87 21.62 55.45 21.67 55.03 21.67C53.35 21.67 51.98 20.72 51.98 18.43C51.98 16.4 53.39 15.19 55.26 15.19C55.64 15.19 55.97 15.23 56.25 15.34L56.25 21.5Z" fill="#4C4C4D" fill-opacity="1.000000" fill-rule="nonzero"/>
		<path id="Vector" d="M66.16 13.07C63 13.07 61.05 15.49 61.05 18.48C61.05 21.14 62.6 23.85 66.11 23.85C69.07 23.85 71.15 21.67 71.15 18.41C71.15 15.53 69.39 13.07 66.16 13.07ZM66.03 15.19C67.81 15.19 68.57 16.73 68.57 18.48C68.57 20.64 67.45 21.71 66.16 21.71C64.56 21.71 63.61 20.37 63.61 18.43C63.61 16.44 64.62 15.19 66.03 15.19Z" fill="#4C4C4D" fill-opacity="1.000000" fill-rule="nonzero"/>
		<path id="Vector" d="M73.52 8.68C73.43 8.68 73.37 8.72 73.37 8.83L73.37 23.2C73.37 23.26 73.43 23.37 73.52 23.39C74.53 23.7 75.58 23.85 76.67 23.85C79.78 23.85 82.81 21.92 82.81 18.03C82.81 15.21 80.88 13.07 77.85 13.07C77.16 13.07 76.51 13.18 75.94 13.37L75.91 8.85C75.91 8.7 75.87 8.68 75.72 8.68L73.52 8.68ZM80.22 18.29C80.22 20.62 78.63 21.71 76.91 21.71C76.55 21.71 76.23 21.69 75.94 21.6L75.94 15.47C76.27 15.34 76.67 15.23 77.41 15.23C79.07 15.23 80.22 16.29 80.22 18.29Z" fill="#4C4C4D" fill-opacity="1.000000" fill-rule="nonzero"/>
		<path id="Vector" d="M91.35 19.04C92.38 19.04 93.22 19.02 93.51 18.96C93.62 18.94 93.66 18.9 93.68 18.81C93.74 18.58 93.77 18.1 93.77 17.51C93.77 15.51 92.57 13.07 89.46 13.07C86.29 13.07 84.52 15.66 84.52 18.58C84.52 21.16 85.89 23.85 89.71 23.85C91.14 23.85 92.07 23.62 92.87 23.24C92.95 23.2 92.99 23.14 92.99 23.02L92.99 21.27C92.99 21.16 92.93 21.14 92.87 21.19C92.07 21.52 91.2 21.69 90.26 21.69C88.12 21.69 87.14 20.51 87.08 19.04L91.35 19.04ZM87.08 17.23C87.25 16.21 87.9 15.09 89.35 15.09C90.95 15.09 91.37 16.44 91.37 17.05C91.37 17.07 91.37 17.15 91.37 17.21C91.28 17.23 91.01 17.23 90.22 17.23L87.08 17.23Z" fill="#4C4C4D" fill-opacity="1.000000" fill-rule="nonzero"/>
	</g>
</svg>
