<svg width="78.000000" height="14.000000" viewBox="0 0 78 14" fill="none" xmlns="http://www.w3.org/2000/svg" xmlns:xlink="http://www.w3.org/1999/xlink">
	<desc>
			Created with Pixso.
	</desc>
	<defs/>
	<path id="Vector" d="M8.46 13.07C8.64 13.16 8.87 13.15 9.03 13.01L9.04 13.02C9.52 12.59 10.39 11.83 10.88 11.42C11.07 11.26 11.04 11 10.88 10.79C10.45 10.18 9.98 9.69 9.98 8.56L9.98 4.82C9.98 4.69 9.98 4.56 9.98 4.44C9.99 3 10 1.69 8.92 0.69C8 -0.19 6.47 -0.5 5.31 -0.5C3.02 -0.5 0.47 0.35 -0.06 3.17C-0.12 3.47 0.1 3.63 0.3 3.67L2.63 3.92C2.84 3.91 3 3.7 3.04 3.48C3.24 2.51 4.06 2.04 4.97 2.04C5.46 2.04 6.03 2.22 6.32 2.67C6.62 3.11 6.62 3.7 6.61 4.23C6.61 4.29 6.61 4.35 6.61 4.4L6.61 4.71C5.22 4.87 3.4 4.97 2.1 5.55C0.59 6.2 -0.46 7.52 -0.46 9.47C-0.46 11.97 1.11 13.21 3.13 13.21C4.84 13.21 5.77 12.81 7.09 11.47C7.52 12.1 7.67 12.41 8.46 13.07ZM40.5 13.01C40.34 13.15 40.11 13.16 39.94 13.07C39.14 12.41 38.99 12.1 38.56 11.47C37.24 12.81 36.31 13.21 34.6 13.21C32.58 13.21 31.01 11.97 31.01 9.47C31.01 7.52 32.06 6.2 33.57 5.55C34.87 4.97 36.69 4.87 38.08 4.71L38.08 4.4C38.08 4.35 38.08 4.29 38.08 4.23C38.09 3.7 38.09 3.11 37.79 2.67C37.5 2.22 36.94 2.04 36.44 2.04C35.53 2.04 34.71 2.51 34.51 3.48C34.47 3.7 34.31 3.91 34.09 3.92L31.77 3.67C31.57 3.63 31.35 3.47 31.41 3.17C31.94 0.35 34.5 -0.5 36.78 -0.5C37.95 -0.5 39.47 -0.19 40.39 0.69C41.47 1.69 41.46 3 41.45 4.44C41.45 4.56 41.45 4.69 41.45 4.82L41.45 8.56C41.45 9.69 41.92 10.18 42.36 10.79C42.51 11 42.54 11.26 42.35 11.42C41.86 11.83 40.99 12.59 40.51 13.02L40.5 13.01ZM13.19 13.04L15.59 13.04C15.84 13.04 16.05 12.85 16.05 12.6L16.05 6.07C16.05 6.02 16.05 5.97 16.05 5.91C16.05 4.51 16.04 2.67 17.71 2.67C19.24 2.67 19.21 4.3 19.19 5.63C19.19 5.78 19.19 5.93 19.19 6.07L19.19 12.6C19.19 12.84 19.38 13.03 19.62 13.04L22.02 13.04C22.28 13.04 22.48 12.85 22.48 12.6L22.48 6.07C22.48 6.01 22.48 5.96 22.48 5.9C22.48 5.21 22.48 4.28 22.71 3.71C22.95 3.09 23.56 2.7 24.14 2.7C24.84 2.7 25.37 2.93 25.55 3.76C25.64 4.16 25.63 5.07 25.62 5.69C25.62 5.84 25.62 5.97 25.62 6.07L25.62 12.6C25.62 12.84 25.81 13.03 26.05 13.04L28.45 13.04C28.71 13.04 28.91 12.85 28.91 12.6L28.91 4.82C28.91 4.63 28.92 4.44 28.92 4.24C28.94 3.08 28.96 1.85 28.31 0.96C27.64 0.03 26.54 -0.39 25.53 -0.39C24.12 -0.39 22.8 0.34 22.22 1.9C21.54 0.34 20.6 -0.39 19.1 -0.39C17.62 -0.39 16.52 0.34 15.94 1.9L15.89 1.9L15.89 0.29C15.88 0.06 15.69 -0.12 15.46 -0.13L13.22 -0.13C12.96 -0.13 12.76 0.07 12.76 0.32L12.76 12.64C12.78 12.86 12.96 13.03 13.19 13.04ZM59.96 -0.39C63.52 -0.39 65.45 2.67 65.45 6.56C65.45 10.32 63.32 13.3 59.96 13.3C56.46 13.3 54.55 10.24 54.55 6.43C54.55 2.59 56.48 -0.39 59.96 -0.39ZM67.68 13.04L70.07 13.04C70.32 13.04 70.53 12.85 70.54 12.6L70.54 5.96C70.54 5.13 70.58 4.38 70.92 3.63C71.18 3.04 71.72 2.65 72.3 2.65C73.83 2.65 73.82 4.32 73.81 5.64C73.81 5.75 73.81 5.86 73.81 5.96L73.81 12.66C73.83 12.87 74.01 13.03 74.23 13.04L76.64 13.04C76.88 13.04 77.08 12.87 77.1 12.66L77.1 4.9C77.1 3.71 77.1 2.05 76.47 1.07C75.8 0 74.75 -0.39 73.67 -0.39C72.01 -0.39 71.07 0.42 70.4 2.1L70.36 2.1L70.36 0.22C70.31 0.03 70.14 -0.12 69.93 -0.13L67.7 -0.13C67.46 -0.13 67.26 0.05 67.24 0.27L67.24 12.6C67.24 12.84 67.44 13.03 67.68 13.04ZM44.37 2.05L44.37 0.29C44.37 0.02 44.57 -0.16 44.82 -0.16L52.71 -0.16C52.96 -0.16 53.16 0.02 53.16 0.29L53.16 1.79C53.16 2.05 52.95 2.38 52.57 2.9L48.48 8.74C50 8.7 51.6 8.93 52.98 9.71C53.29 9.88 53.38 10.14 53.4 10.39L53.4 12.27C53.4 12.53 53.12 12.83 52.82 12.67C50.39 11.4 47.17 11.26 44.48 12.69C44.21 12.84 43.92 12.54 43.92 12.28L43.92 10.5C43.92 10.21 43.93 9.72 44.21 9.28L48.95 2.49L44.83 2.49C44.57 2.49 44.37 2.31 44.37 2.05ZM59.98 2.13C58.21 2.13 58.1 4.54 58.1 6.04L58.1 6.1C58.1 7.62 58.1 10.76 59.96 10.76C61.82 10.76 61.91 8.17 61.91 6.59C61.91 5.55 61.86 4.31 61.55 3.32C61.28 2.46 60.74 2.13 59.98 2.13ZM6.61 7.29C6.61 7.24 6.61 7.2 6.61 7.16L6.61 6.64C4.87 6.64 3.04 7.01 3.04 9.06C3.04 10.09 3.58 10.8 4.5 10.8C5.17 10.8 5.78 10.38 6.16 9.71C6.61 8.91 6.61 8.17 6.61 7.29ZM38.08 7.16C38.08 7.2 38.08 7.24 38.08 7.29C38.08 8.17 38.08 8.91 37.63 9.71C37.25 10.38 36.64 10.8 35.97 10.8C35.05 10.8 34.51 10.09 34.51 9.06C34.51 7.01 36.34 6.64 38.08 6.64L38.08 7.16Z" fill="#4C4C4D" fill-opacity="1.000000" fill-rule="evenodd"/>
</svg>
