<svg width="78.000000" height="21.000000" viewBox="0 0 78 21" fill="none" xmlns="http://www.w3.org/2000/svg" xmlns:xlink="http://www.w3.org/1999/xlink">
	<desc>
			Created with Pixso.
	</desc>
	<defs/>
	<path id="Vector" d="M9.85 18.96C8.67 19.16 7.47 19.23 6.22 19.39L2.42 8.27L2.42 19.87C1.24 19.99 0.16 20.16 -0.96 20.33L-0.96 -0.92L2.19 -0.92L6.51 11.13L6.51 -0.92L9.85 -0.92L9.85 18.96ZM16.39 6.86C17.68 6.86 19.65 6.8 20.83 6.8L20.83 10.12C19.36 10.12 17.63 10.12 16.39 10.18L16.39 15.12C18.34 14.99 20.29 14.83 22.26 14.76L22.26 17.96L13.07 18.69L13.07 -0.92L22.26 -0.92L22.26 2.4L16.39 2.4L16.39 6.86ZM34.61 2.4L31.16 2.4L31.16 17.67C30.04 17.67 28.92 17.67 27.84 17.71L27.84 2.4L24.4 2.4L24.4 -0.92L34.61 -0.92L34.61 2.4ZM40 6.63L44.55 6.63L44.55 9.95L40 9.95L40 17.48L36.75 17.48L36.75 -0.92L46.02 -0.92L46.02 2.4L40 2.4L40 6.63ZM51.42 14.58C53.31 14.62 55.22 14.77 57.06 14.87L57.06 18.15C54.09 17.96 51.13 17.77 48.1 17.71L48.1 -0.92L51.42 -0.92L51.42 14.58ZM59.86 18.38C60.92 18.44 62.04 18.5 63.12 18.62L63.12 -0.92L59.86 -0.92L59.86 18.38ZM77.67 -0.92L73.46 9.18L77.67 20.33C76.42 20.16 75.18 19.93 73.93 19.72L71.55 13.58L69.12 19.23C67.92 19.02 66.75 18.96 65.55 18.79L69.83 9.06L65.96 -0.92L69.53 -0.92L71.71 4.66L74.04 -0.92L77.67 -0.92L77.67 -0.92Z" fill="#4C4C4D" fill-opacity="1.000000" fill-rule="nonzero"/>
</svg>
