<svg width="91.000000" height="24.000000" viewBox="0 0 91 24" fill="none" xmlns="http://www.w3.org/2000/svg" xmlns:xlink="http://www.w3.org/1999/xlink">
	<desc>
			Created with Pixso.
	</desc>
	<defs/>
	<path id="Vector" d="M14.43 -0.7L0.86 0.29C-0.23 0.39 -0.62 1.09 -0.62 1.95L-0.62 16.75C-0.62 17.41 -0.38 17.98 0.19 18.74L3.39 22.88C3.91 23.54 4.38 23.69 5.39 23.64L21.14 22.68C22.47 22.58 22.84 21.97 22.84 20.93L22.84 4.28C22.84 3.71 22.6 3.57 21.88 3.05L17.56 0.02C16.52 -0.75 16.08 -0.84 14.43 -0.7ZM5.72 4C4.44 4.09 4.16 4.11 3.43 3.52L1.57 2.06C1.38 1.88 1.48 1.64 1.95 1.59L14.98 0.63C16.07 0.53 16.65 0.92 17.08 1.25L19.32 2.85C19.41 2.89 19.66 3.18 19.37 3.18L5.9 3.99C5.83 3.99 5.78 4 5.72 4ZM66.24 4.69C66.24 5.55 65.53 6.25 64.66 6.25C63.8 6.25 63.09 5.55 63.09 4.69C63.09 3.81 63.8 3.11 64.66 3.11C65.53 3.11 66.24 3.81 66.24 4.69ZM31.21 9.32L31.21 19.63L28.58 19.63L28.58 4.49L30.95 4.49L38.45 14.77L38.63 14.77L38.63 4.49L41.26 4.49L41.26 19.63L38.9 19.63L31.39 9.32L31.21 9.32ZM4.24 20.79L4.24 6.65C4.24 6.03 4.43 5.74 5 5.69L20.47 4.78C20.99 4.73 21.24 5.07 21.24 5.69L21.24 19.73C21.24 20.35 21.14 20.87 20.28 20.91L5.47 21.77C4.61 21.82 4.24 21.55 4.24 20.79ZM56.66 8.23L56.66 5.34L59.29 5.34L59.29 8.23L61.78 8.23L61.78 10.3L59.29 10.3L59.29 15.94C59.29 17.08 59.78 17.58 60.89 17.58C61.25 17.58 61.46 17.55 61.78 17.52L61.78 19.55C61.38 19.63 60.89 19.68 60.39 19.68C57.71 19.68 56.66 18.8 56.66 16.56L56.66 10.3L54.83 10.3L54.83 8.23L56.66 8.23ZM18.42 8.32C18.85 8.27 18.94 7.83 18.85 7.41L15.58 7.59C15.11 7.64 14.72 8.03 14.82 8.54L16.05 8.69L16.05 15.22L11.19 7.83L7.67 8.07C7 8.12 6.76 8.74 6.85 9.16L8.04 9.26L8.04 18.6L7.18 18.84C6.85 18.94 6.76 19.41 6.85 19.6L10.14 19.41C11.32 19.41 11.32 18.55 11.32 18.55L9.84 18.22L9.84 11.15L14.51 18.47C15.08 19.18 15.27 19.42 16.04 19.42C16.52 19.42 17.09 19.23 17.71 18.9L17.71 8.46L18.42 8.32ZM54.27 13.89C54.27 17.63 52.15 19.86 48.68 19.86C45.22 19.86 43.12 17.63 43.1 13.89C43.1 10.17 45.25 7.91 48.68 7.91C52.15 7.91 54.27 10.17 54.27 13.89ZM78.76 13.89C78.76 17.63 76.63 19.86 73.17 19.86C69.68 19.86 67.58 17.63 67.58 13.89C67.58 10.17 69.73 7.91 73.17 7.91C76.63 7.91 78.76 10.17 78.76 13.89ZM82.93 19.63L80.3 19.63C80.3 19.63 80.3 8.15 80.28 8.15L82.82 8.15L82.82 9.99L83.01 9.99C83.56 8.69 84.71 7.91 86.44 7.91C89.02 7.91 90.43 9.45 90.43 12.2L90.43 19.63L87.81 19.63L87.81 12.82C87.81 11.08 87.07 10.2 85.47 10.2C83.92 10.2 82.93 11.26 82.93 12.95L82.93 19.63ZM65.98 19.63L63.35 19.63L63.35 8.15L65.98 8.15L65.98 19.63ZM45.8 13.89C45.8 16.3 46.85 17.68 48.68 17.68C50.52 17.68 51.57 16.3 51.57 13.89C51.57 11.5 50.52 10.1 48.68 10.1C46.85 10.1 45.8 11.5 45.8 13.89ZM70.28 13.89C70.28 16.3 71.33 17.68 73.17 17.68C74.98 17.68 76.03 16.3 76.05 13.89C76.05 11.5 74.98 10.1 73.17 10.1C71.33 10.1 70.28 11.5 70.28 13.89Z" fill="#4C4C4D" fill-opacity="1.000000" fill-rule="evenodd"/>
</svg>
