<svg width="99.000000" height="29.000000" viewBox="0 0 99 29" fill="none" xmlns="http://www.w3.org/2000/svg" xmlns:xlink="http://www.w3.org/1999/xlink">
	<desc>
			Created with Pixso.
	</desc>
	<defs/>
	<path id="Vector" d="M14.27 -0.82C6.05 -0.82 -0.61 5.84 -0.61 14.05C-0.61 22.27 6.05 28.93 14.27 28.93C22.49 28.93 29.14 22.27 29.14 14.05C29.14 5.84 22.49 -0.82 14.27 -0.82L14.27 -0.82ZM21.09 20.63C20.82 21.07 20.25 21.21 19.82 20.94C16.32 18.8 11.93 18.32 6.75 19.5C6.25 19.62 5.75 19.3 5.64 18.81C5.52 18.31 5.83 17.81 6.33 17.7C12 16.4 16.86 16.96 20.78 19.35C21.22 19.62 21.36 20.19 21.09 20.63ZM22.91 16.58C22.58 17.13 21.86 17.3 21.32 16.96C17.32 14.5 11.22 13.79 6.49 15.23C5.88 15.41 5.23 15.07 5.05 14.46C4.86 13.84 5.21 13.2 5.82 13.01C11.22 11.37 17.94 12.16 22.53 14.99C23.07 15.32 23.25 16.04 22.91 16.58L22.91 16.58ZM23.07 12.36C18.27 9.51 10.36 9.25 5.79 10.64C5.05 10.86 4.27 10.45 4.05 9.71C3.83 8.98 4.24 8.2 4.98 7.98C10.23 6.38 18.97 6.69 24.49 9.97C25.15 10.36 25.37 11.22 24.97 11.88C24.58 12.54 23.73 12.75 23.07 12.36L23.07 12.36ZM39.86 12.91C37.3 12.3 36.84 11.87 36.84 10.96C36.84 10.11 37.64 9.53 38.84 9.53C40 9.53 41.14 9.97 42.35 10.87C42.38 10.9 42.43 10.91 42.47 10.9C42.52 10.89 42.56 10.87 42.59 10.83L43.84 9.06C43.89 8.99 43.88 8.89 43.81 8.83C42.37 7.68 40.76 7.13 38.87 7.13C36.1 7.13 34.16 8.79 34.16 11.17C34.16 13.72 35.84 14.63 38.72 15.33C41.18 15.89 41.6 16.37 41.6 17.21C41.6 18.15 40.76 18.74 39.41 18.74C37.91 18.74 36.68 18.23 35.32 17.05C35.28 17.02 35.24 17.01 35.19 17.01C35.15 17.01 35.11 17.03 35.08 17.07L33.67 18.74C33.61 18.81 33.62 18.91 33.69 18.97C35.28 20.4 37.24 21.15 39.35 21.15C42.34 21.15 44.27 19.51 44.27 16.99C44.27 14.85 43 13.67 39.87 12.91L39.86 12.91ZM51.03 10.37C49.74 10.37 48.67 10.88 47.8 11.93L47.8 10.75C47.8 10.66 47.72 10.59 47.63 10.59L45.33 10.59C45.24 10.59 45.16 10.66 45.16 10.75L45.16 23.83C45.16 23.92 45.24 24 45.33 24L47.63 24C47.72 24 47.8 23.92 47.8 23.83L47.8 19.7C48.67 20.68 49.74 21.16 51.03 21.16C53.44 21.16 55.87 19.31 55.87 15.77C55.88 12.23 53.44 10.37 51.03 10.37L51.03 10.37ZM53.2 15.77C53.2 17.57 52.09 18.83 50.5 18.83C48.92 18.83 47.74 17.52 47.74 15.77C47.74 14.02 48.92 12.71 50.5 12.71C52.06 12.71 53.2 14 53.2 15.77L53.2 15.77ZM62.12 10.37C59.02 10.37 56.59 12.76 56.59 15.81C56.59 18.82 59 21.18 62.08 21.18C65.19 21.18 67.63 18.81 67.63 15.77C67.63 12.74 65.21 10.38 62.12 10.38L62.12 10.37ZM62.12 18.85C60.47 18.85 59.23 17.53 59.23 15.77C59.23 14.01 60.43 12.73 62.08 12.73C63.74 12.73 64.99 14.05 64.99 15.81C64.99 17.57 63.78 18.85 62.12 18.85ZM74.24 10.59L71.71 10.59L71.71 8C71.71 7.9 71.64 7.83 71.55 7.83L69.25 7.83C69.15 7.83 69.08 7.9 69.08 8L69.08 10.59L67.97 10.59C67.88 10.59 67.81 10.66 67.81 10.75L67.81 12.73C67.81 12.82 67.88 12.9 67.97 12.9L69.08 12.9L69.08 18.01C69.08 20.08 70.11 21.13 72.14 21.13C72.96 21.13 73.64 20.96 74.29 20.59C74.34 20.56 74.37 20.51 74.37 20.45L74.37 18.56C74.37 18.51 74.34 18.45 74.29 18.42C74.24 18.39 74.18 18.39 74.13 18.41C73.69 18.64 73.26 18.74 72.78 18.74C72.04 18.74 71.71 18.4 71.71 17.65L71.71 12.9L74.24 12.9C74.34 12.9 74.41 12.82 74.41 12.73L74.41 10.75C74.41 10.66 74.34 10.59 74.25 10.59L74.24 10.59ZM83.06 10.6L83.06 10.28C83.06 9.34 83.42 8.93 84.22 8.93C84.7 8.93 85.09 9.02 85.52 9.16C85.57 9.18 85.63 9.17 85.67 9.14C85.72 9.11 85.74 9.06 85.74 9L85.74 7.07C85.74 6.99 85.69 6.93 85.62 6.9C85.17 6.77 84.58 6.63 83.71 6.63C81.59 6.63 80.46 7.83 80.46 10.09L80.46 10.58L79.36 10.58C79.27 10.58 79.19 10.65 79.19 10.74L79.19 12.73C79.19 12.82 79.27 12.9 79.36 12.9L80.46 12.9L80.46 20.79C80.46 20.88 80.54 20.96 80.63 20.96L82.93 20.96C83.02 20.96 83.1 20.88 83.1 20.79L83.1 12.9L85.25 12.9L88.54 20.79C88.16 21.61 87.8 21.78 87.29 21.78C86.89 21.78 86.46 21.66 86.03 21.42C85.99 21.4 85.94 21.39 85.89 21.41C85.85 21.42 85.81 21.45 85.79 21.5L85.01 23.21C84.98 23.29 85.01 23.38 85.09 23.43C85.9 23.87 86.63 24.05 87.54 24.05C89.24 24.05 90.18 23.26 91.01 21.13L95 10.83C95.02 10.77 95.01 10.71 94.98 10.67C94.95 10.62 94.9 10.6 94.84 10.6L92.45 10.6C92.37 10.6 92.31 10.64 92.29 10.71L89.83 17.71L87.15 10.7C87.12 10.64 87.06 10.6 86.99 10.6L83.06 10.6L83.06 10.6ZM77.95 10.59L75.65 10.59C75.56 10.59 75.48 10.66 75.48 10.75L75.48 20.79C75.48 20.88 75.56 20.96 75.65 20.96L77.95 20.96C78.04 20.96 78.12 20.88 78.12 20.79L78.12 10.75C78.12 10.66 78.04 10.59 77.95 10.59L77.95 10.59ZM76.81 6.02C75.9 6.02 75.16 6.75 75.16 7.67C75.16 8.58 75.9 9.32 76.81 9.32C77.72 9.32 78.46 8.58 78.46 7.67C78.46 6.75 77.72 6.02 76.81 6.02ZM96.96 13.81C96.05 13.81 95.34 13.08 95.34 12.19C95.34 11.3 96.06 10.57 96.97 10.57C97.88 10.57 98.59 11.3 98.59 12.18C98.59 13.07 97.87 13.81 96.96 13.81ZM96.97 10.73C96.14 10.73 95.51 11.39 95.51 12.19C95.51 13 96.14 13.65 96.96 13.65C97.79 13.65 98.42 12.99 98.42 12.18C98.42 11.38 97.79 10.73 96.97 10.73ZM97.33 12.35L97.79 12.99L97.4 12.99L96.99 12.4L96.63 12.4L96.63 12.99L96.31 12.99L96.31 11.29L97.07 11.29C97.46 11.29 97.72 11.49 97.72 11.83C97.72 12.11 97.56 12.28 97.33 12.35L97.33 12.35ZM97.05 11.58L96.63 11.58L96.63 12.12L97.05 12.12C97.26 12.12 97.39 12.02 97.39 11.85C97.39 11.68 97.26 11.58 97.05 11.58Z" fill="#4C4C4D" fill-opacity="1.000000" fill-rule="nonzero"/>
</svg>
