<svg width="68.000000" height="31.000000" viewBox="0 0 68 31" fill="none" xmlns="http://www.w3.org/2000/svg" xmlns:xlink="http://www.w3.org/1999/xlink">
	<desc>
			Created with Pixso.
	</desc>
	<defs/>
	<path id="Vector" d="M42.56 3.36L45.06 3.36C45.1 3.59 45.12 3.83 45.12 4.06L45.12 4.07C45.12 4.32 45.1 4.56 45.07 4.79L42.56 4.79L44.34 6.56C44.2 6.76 44.04 6.94 43.87 7.11C43.7 7.28 43.52 7.43 43.32 7.57L41.55 5.8L41.55 8.3C41.32 8.34 41.08 8.36 40.83 8.36L40.83 8.36C40.58 8.36 40.34 8.34 40.11 8.3L40.11 5.8L38.34 7.57C37.94 7.29 37.6 6.95 37.33 6.56L39.1 4.79L36.6 4.79C36.56 4.56 36.54 4.32 36.54 4.07C36.54 3.83 36.6 3.36 36.6 3.36L39.1 3.36L37.32 1.58C37.46 1.38 37.61 1.2 37.78 1.03C37.95 0.87 38.14 0.71 38.33 0.57L40.1 2.34L40.1 -0.16C40.33 -0.2 40.57 -0.22 40.82 -0.22L40.83 -0.22C41.07 -0.22 41.31 -0.2 41.54 -0.16L41.54 2.34L43.32 0.57C43.52 0.71 43.7 0.86 43.87 1.03C44.03 1.2 44.19 1.39 44.33 1.58L42.56 3.36ZM41.74 4.99C41.84 4.71 41.9 4.4 41.9 4.08C41.9 3.75 41.84 3.45 41.74 3.16C41.45 3.06 41.15 3 40.83 3C40.51 3 40.2 3.06 39.92 3.16C39.81 3.45 39.75 3.75 39.75 4.07L39.75 4.08C39.75 4.4 39.81 4.71 39.92 4.99C40.2 5.09 40.51 5.15 40.83 5.15C41.15 5.15 41.45 5.09 41.74 4.99ZM48.13 18.43C48.16 19.87 48.54 20.94 49.25 21.61C49.97 22.28 51.03 22.61 52.42 22.61C53.64 22.61 54.81 22.4 55.91 21.97C56.05 22.23 56.17 22.54 56.25 22.91C56.34 23.28 56.38 23.65 56.4 24.01C55.84 24.25 55.21 24.44 54.53 24.56C53.85 24.68 53.09 24.74 52.26 24.74C51.06 24.74 50.02 24.57 49.16 24.23C48.29 23.9 47.58 23.42 47.03 22.81C46.47 22.2 46.06 21.47 45.8 20.63C45.54 19.8 45.41 18.88 45.41 17.88C45.41 16.89 45.54 15.98 45.78 15.12C46.03 14.26 46.41 13.53 46.93 12.89C47.44 12.27 48.1 11.76 48.88 11.4C49.66 11.02 50.59 10.84 51.66 10.84C52.58 10.84 53.37 10.99 54.07 11.31C54.76 11.62 55.33 12.04 55.8 12.59C56.26 13.13 56.62 13.78 56.86 14.52C57.1 15.28 57.22 16.09 57.22 16.97C57.22 17.21 57.22 17.47 57.19 17.73C57.18 18 57.16 18.23 57.14 18.41L48.13 18.41L48.13 18.43ZM19.78 15.69C19.78 14.67 19.52 13.97 19.01 13.56C18.49 13.17 17.74 12.97 16.76 12.97C16.15 12.97 15.59 13.01 15.07 13.11C14.54 13.21 14.03 13.32 13.52 13.48C13.2 12.91 13.03 12.23 13.03 11.44C13.62 11.25 14.26 11.1 14.97 11C15.68 10.9 16.36 10.84 17.01 10.84C18.73 10.84 20.04 11.24 20.94 12.02C21.84 12.8 22.29 14.06 22.29 15.78L22.29 24.08C21.69 24.22 20.96 24.36 20.09 24.51C19.23 24.66 18.35 24.72 17.46 24.72C16.62 24.72 15.85 24.65 15.17 24.49C14.49 24.33 13.91 24.09 13.44 23.74C12.96 23.4 12.59 22.96 12.33 22.42C12.07 21.88 11.95 21.24 11.95 20.48C11.95 19.75 12.09 19.09 12.4 18.53C12.7 17.97 13.11 17.5 13.63 17.14Q14.4 16.58 15.42 16.31C16.09 16.13 16.79 16.04 17.54 16.04C18.09 16.04 18.55 16.05 18.9 16.07C19.25 16.1 19.54 16.13 19.79 16.16L19.79 15.69L19.78 15.69ZM25.09 11.16C25.26 11.13 25.44 11.1 25.62 11.09Q25.88 11.07 26.17 11.07C26.35 11.07 26.52 11.08 26.72 11.09C26.9 11.1 27.09 11.13 27.26 11.16C27.28 11.2 27.3 11.31 27.33 11.48C27.35 11.66 27.38 11.86 27.4 12.07C27.43 12.27 27.46 12.47 27.48 12.66C27.5 12.86 27.51 12.97 27.51 13.03C27.69 12.75 27.89 12.48 28.13 12.22C28.37 11.96 28.66 11.73 29 11.52C29.33 11.31 29.71 11.15 30.14 11.03C30.56 10.91 31.03 10.85 31.54 10.85C32.32 10.85 33.04 10.98 33.71 11.24C34.37 11.5 34.93 11.89 35.41 12.44C35.89 12.98 36.25 13.67 36.52 14.51C36.79 15.34 36.92 16.33 36.92 17.47C36.92 19.75 36.31 21.53 35.08 22.82C33.84 24.1 32.1 24.74 29.84 24.74C29.46 24.74 29.07 24.72 28.68 24.67C28.28 24.62 27.93 24.55 27.64 24.46L27.64 30.54C27.43 30.58 27.22 30.6 26.98 30.62C26.75 30.63 26.53 30.64 26.35 30.64C26.16 30.64 25.94 30.63 25.71 30.62C25.48 30.6 25.26 30.57 25.08 30.54L25.08 11.16L25.09 11.16ZM60.05 11.16C60.24 11.13 60.43 11.1 60.6 11.09C60.77 11.07 60.95 11.07 61.14 11.07C61.33 11.07 61.52 11.07 61.71 11.09C61.89 11.1 62.07 11.13 62.22 11.16C62.27 11.42 62.33 11.76 62.38 12.18C62.43 12.61 62.45 12.97 62.45 13.26C62.82 12.67 63.29 12.16 63.89 11.73C64.49 11.3 65.25 11.08 66.18 11.08C66.32 11.08 66.46 11.09 66.6 11.1C66.75 11.1 66.87 11.12 66.98 11.13C67.01 11.29 67.04 11.45 67.05 11.63C67.06 11.8 67.07 11.98 67.07 12.17C67.07 12.38 67.06 12.59 67.04 12.82C67.01 13.04 66.98 13.26 66.95 13.47C66.8 13.43 66.66 13.41 66.52 13.41L66.17 13.41C65.71 13.41 65.26 13.48 64.84 13.61C64.41 13.73 64.03 13.96 63.7 14.29C63.36 14.62 63.09 15.07 62.89 15.64C62.69 16.21 62.59 16.94 62.59 17.84L62.59 24.43C62.41 24.47 62.19 24.49 61.96 24.51C61.73 24.52 61.51 24.53 61.33 24.53C61.14 24.53 60.93 24.52 60.7 24.51C60.46 24.49 60.24 24.46 60.03 24.43L60.03 11.16L60.05 11.16ZM-0.36 24.07L6.62 13.21L0.47 13.21C0.41 12.89 0.39 12.55 0.39 12.17C0.39 11.8 0.41 11.47 0.47 11.16L10.43 11.16L10.55 11.5L3.52 22.38L10.11 22.38C10.16 22.73 10.19 23.08 10.19 23.44C10.19 23.78 10.16 24.11 10.11 24.42L-0.23 24.42L-0.36 24.07ZM40.11 13.18L38.43 13.18C38.39 13.03 38.37 12.88 38.35 12.7C38.34 12.52 38.33 12.34 38.33 12.17C38.33 12 38.34 11.82 38.35 11.64C38.37 11.46 38.4 11.3 38.43 11.16L42.62 11.16L42.62 24.43C42.44 24.47 42.22 24.49 41.99 24.51C41.76 24.52 41.54 24.53 41.36 24.53C41.18 24.53 40.98 24.52 40.75 24.51C40.51 24.49 40.3 24.46 40.11 24.43L40.11 13.18ZM54.7 16.51C54.7 16.03 54.63 15.57 54.5 15.13C54.38 14.69 54.18 14.31 53.94 13.98C53.69 13.65 53.37 13.39 52.98 13.19C52.6 12.99 52.14 12.89 51.6 12.89C50.55 12.89 49.74 13.21 49.18 13.85C48.62 14.49 48.28 15.37 48.16 16.51L54.7 16.51ZM27.65 22.26C27.98 22.38 28.31 22.47 28.65 22.52C29 22.57 29.44 22.59 30 22.59C30.62 22.59 31.2 22.5 31.71 22.29C32.22 22.09 32.67 21.79 33.04 21.38C33.41 20.96 33.71 20.44 33.92 19.81C34.14 19.19 34.24 18.44 34.24 17.58Q34.24 15.51 33.48 14.29C32.98 13.48 32.14 13.08 30.99 13.08C30.55 13.08 30.14 13.15 29.74 13.31C29.35 13.47 28.99 13.7 28.68 14.01C28.37 14.32 28.13 14.71 27.93 15.19C27.74 15.66 27.65 16.22 27.65 16.88L27.65 22.26ZM19.78 18.2C19.52 18.16 19.19 18.13 18.8 18.09C18.4 18.05 18.07 18.04 17.79 18.04C16.72 18.04 15.91 18.24 15.35 18.64C14.79 19.03 14.51 19.63 14.51 20.45C14.51 20.96 14.6 21.37 14.79 21.66C14.98 21.95 15.22 22.17 15.5 22.33C15.78 22.49 16.09 22.58 16.45 22.61C16.79 22.65 17.12 22.67 17.43 22.67C17.82 22.67 18.23 22.64 18.66 22.6C19.08 22.55 19.45 22.49 19.78 22.41L19.78 18.2Z" fill="#4C4C4D" fill-opacity="1.000000" fill-rule="evenodd"/>
</svg>
