<svg width="69.000000" height="16.000000" viewBox="0 0 69 16" fill="none" xmlns="http://www.w3.org/2000/svg" xmlns:xlink="http://www.w3.org/1999/xlink">
	<desc>
			Created with Pixso.
	</desc>
	<defs/>
	<path id="Vector" d="M55.96 4.59C56.23 5.04 56.31 5.56 56.34 6.15L56.38 6.93L56.38 12.38L56.42 13.16C56.49 14.44 57.43 15.38 58.72 15.46L59.49 15.5L59.49 6.93L59.53 6.15C59.56 5.57 59.65 5.04 59.92 4.58C60.19 4.11 60.59 3.72 61.06 3.44C61.54 3.17 62.07 3.03 62.62 3.03C63.16 3.03 63.7 3.18 64.17 3.45C64.65 3.72 65.04 4.12 65.31 4.59C65.58 5.05 65.66 5.58 65.69 6.15L65.73 6.93L65.73 12.38L65.77 13.16C65.85 14.44 66.78 15.38 68.07 15.46L68.85 15.5L68.85 6.15C68.85 4.5 68.19 2.91 67.02 1.74C65.85 0.57 64.27 -0.08 62.61 -0.08C61.73 -0.09 60.85 0.1 60.05 0.47C59.24 0.83 58.52 1.36 57.94 2.03C57.35 1.36 56.63 0.83 55.83 0.47C55.02 0.1 54.15 -0.09 53.26 -0.09C51.97 -0.09 50.77 0.31 49.77 0.99C49.17 0.31 47.81 -0.09 47.03 -0.09L47.03 15.5L47.81 15.46C49.11 15.37 50.05 14.46 50.11 13.16L50.15 12.38L50.15 6.93L50.19 6.15C50.22 5.56 50.3 5.04 50.57 4.58C50.84 4.11 51.23 3.72 51.71 3.45C52.18 3.17 52.72 3.03 53.26 3.03C53.81 3.03 54.35 3.17 54.82 3.45C55.29 3.72 55.69 4.11 55.96 4.59ZM2.62 15.46L3.4 15.5L15.08 15.5L15.04 14.72C14.94 13.44 14.03 12.5 12.75 12.42L11.97 12.38L4.96 12.38L14.3 3.03L14.27 2.25C14.21 0.96 13.26 0.02 11.97 -0.05L11.19 -0.08L-0.5 -0.09L-0.46 0.69C-0.36 1.96 0.56 2.92 1.84 2.99L2.62 3.03L9.63 3.03L0.28 12.38L0.32 13.16C0.4 14.45 1.32 15.38 2.62 15.46L2.62 15.46ZM43.97 2.2C44.69 2.92 45.27 3.78 45.66 4.72C46.05 5.67 46.25 6.68 46.25 7.7C46.25 8.73 46.05 9.74 45.66 10.69C45.27 11.63 44.69 12.49 43.97 13.21C42.51 14.68 40.53 15.5 38.46 15.5C36.39 15.5 34.41 14.68 32.95 13.21C29.91 10.17 29.91 5.24 32.95 2.2C33.67 1.47 34.53 0.9 35.47 0.51C36.42 0.12 37.43 -0.09 38.45 -0.09C39.48 -0.09 40.49 0.11 41.44 0.51C42.38 0.9 43.25 1.47 43.97 2.2L43.97 2.2ZM41.76 4.4C42.64 5.28 43.13 6.47 43.13 7.71C43.13 8.95 42.64 10.14 41.76 11.01C40.89 11.89 39.7 12.38 38.46 12.38C37.22 12.38 36.03 11.89 35.15 11.01C34.28 10.14 33.78 8.95 33.78 7.71C33.78 6.47 34.28 5.28 35.15 4.4C36.03 3.53 37.22 3.03 38.46 3.03C39.7 3.03 40.89 3.53 41.76 4.4ZM22.1 -0.09C23.12 -0.09 24.14 0.12 25.08 0.51C26.03 0.9 26.88 1.47 27.61 2.2C30.65 5.24 30.65 10.17 27.61 13.21C26.15 14.68 24.16 15.5 22.1 15.5C20.03 15.5 18.05 14.68 16.59 13.21C13.54 10.17 13.54 5.24 16.59 2.2C17.31 1.47 18.17 0.9 19.11 0.51C20.06 0.12 21.07 -0.09 22.09 -0.09L22.1 -0.09ZM25.4 4.4C26.28 5.28 26.77 6.47 26.77 7.71C26.77 8.95 26.28 10.14 25.4 11.01C24.53 11.89 23.34 12.38 22.1 12.38C20.86 12.38 19.67 11.89 18.79 11.01C17.91 10.14 17.42 8.95 17.42 7.71C17.42 6.47 17.91 5.28 18.79 4.4C19.67 3.52 20.86 3.03 22.1 3.03C23.34 3.03 24.53 3.52 25.4 4.4L25.4 4.4Z" fill="#4C4C4D" fill-opacity="1.000000" fill-rule="evenodd"/>
</svg>
