<svg width="74.000000" height="74.000000" viewBox="0 0 74 74" fill="none" xmlns="http://www.w3.org/2000/svg" xmlns:xlink="http://www.w3.org/1999/xlink">
	<desc>
			Created with Pixso.
	</desc>
	<defs>
		<clipPath id="clip29_22">
			<rect id="Icon" width="34.000000" height="34.000000" transform="translate(20.000000 20.000000)" fill="white" fill-opacity="0"/>
		</clipPath>
	</defs>
	<rect id="Button" rx="7.500000" width="73.000000" height="73.000000" transform="translate(0.500000 0.500000)" fill="#FCFCFD" fill-opacity="1.000000"/>
	<g clip-path="url(#clip29_22)">
		<path id="Vector (Stroke)" d="M28.87 45.12C29.37 45.62 30.17 45.62 30.67 45.12L42.95 32.85L42.95 42.52C42.95 43.22 43.52 43.8 44.22 43.8C44.92 43.8 45.5 43.22 45.5 42.52L45.5 29.77C45.5 29.07 44.92 28.5 44.22 28.5L31.47 28.5C30.77 28.5 30.2 29.07 30.2 29.77C30.2 30.47 30.77 31.05 31.47 31.05L41.14 31.05L28.87 43.32C28.37 43.82 28.37 44.62 28.87 45.12Z" fill="#FF9500" fill-opacity="1.000000" fill-rule="evenodd"/>
	</g>
	<rect id="Button" rx="7.500000" width="73.000000" height="73.000000" transform="translate(0.500000 0.500000)" stroke="#F1F1F3" stroke-opacity="1.000000" stroke-width="1.000000"/>
</svg>
