<svg width="26.000000" height="29.000000" viewBox="0 0 26 29" fill="none" xmlns="http://www.w3.org/2000/svg" xmlns:xlink="http://www.w3.org/1999/xlink">
	<desc>
			Created with Pixso.
	</desc>
	<defs/>
	<path id="Vector 449 (Stroke)" d="M16.2 -0.75C16.63 -0.51 16.84 -0.01 16.71 0.46L13.89 10.81L24.18 10.81C24.61 10.81 24.99 11.06 25.16 11.45C25.33 11.83 25.25 12.29 24.96 12.6L10.08 28.53C9.75 28.89 9.22 28.97 8.79 28.74C8.36 28.5 8.15 28 8.28 27.53L11.1 17.18L0.81 17.18C0.38 17.18 0 16.93 -0.17 16.54C-0.34 16.16 -0.26 15.7 0.03 15.4L14.91 -0.54C15.24 -0.9 15.77 -0.98 16.2 -0.75Z" fill="#262626" fill-opacity="1.000000" fill-rule="evenodd"/>
</svg>
