<svg width="39.000000" height="43.000000" viewBox="0 0 39 43" fill="none" xmlns="http://www.w3.org/2000/svg" xmlns:xlink="http://www.w3.org/1999/xlink">
	<desc>
			Created with Pixso.
	</desc>
	<defs/>
	<rect id="Abstract Line" width="39.000000" height="43.000000" transform="translate(-0.500000 0.000000)" fill="#FFFFFF" fill-opacity="0"/>
	<path id="Vector" d="M12.54 40.12C8.82 39.07 4.92 38.54 1.14 38.05C0.32 37.95 -0.43 38.52 -0.49 39.32C-0.61 40.12 -0.02 40.86 0.73 40.96C4.4 41.43 8.18 41.93 11.73 42.94C12.49 43.16 13.3 42.71 13.53 41.93C13.77 41.15 13.3 40.34 12.54 40.12Z" fill="#262626" fill-opacity="1.000000" fill-rule="evenodd"/>
	<path id="Vector" d="M23.83 25.21C17.84 19.06 11.09 13.69 5.21 7.37C4.69 6.78 3.76 6.75 3.18 7.3C2.59 7.86 2.54 8.78 3.12 9.37C8.99 15.71 15.74 21.09 21.74 27.26C22.32 27.84 23.25 27.85 23.83 27.28C24.36 26.72 24.41 25.79 23.83 25.21Z" fill="#262626" fill-opacity="1.000000" fill-rule="evenodd"/>
	<path id="Vector" d="M35.06 1.54C35.24 5.06 35.41 8.58 35.59 12.11C35.59 12.91 36.28 13.54 37.1 13.5C37.91 13.46 38.5 12.77 38.5 11.96C38.32 8.44 38.15 4.91 37.97 1.38C37.91 0.57 37.21 -0.05 36.4 0C35.64 0.04 35 0.73 35.06 1.54Z" fill="#262626" fill-opacity="1.000000" fill-rule="evenodd"/>
</svg>
