<svg width="17.000000" height="14.000000" viewBox="0 0 17 14" fill="none" xmlns="http://www.w3.org/2000/svg" xmlns:xlink="http://www.w3.org/1999/xlink">
	<desc>
			Created with Pixso.
	</desc>
	<defs/>
	<path id="Vector (Stroke)" d="M-0.41 6.49C-0.41 6 0 5.6 0.5 5.6L13.26 5.59L8.27 0.84C7.91 0.5 7.9 -0.07 8.25 -0.43C8.59 -0.79 9.16 -0.8 9.52 -0.45L16.12 5.85C16.29 6.02 16.39 6.25 16.39 6.49C16.39 6.74 16.29 6.97 16.12 7.14L9.52 13.44C9.16 13.79 8.59 13.78 8.25 13.42C7.9 13.06 7.91 12.49 8.27 12.15L13.26 7.39L0.5 7.39C0 7.39 -0.41 6.99 -0.41 6.49Z" fill="#FFFFFF" fill-opacity="1.000000" fill-rule="evenodd"/>
</svg>
